<svg width="73" height="73" viewBox="0 0 73 73" fill="none" xmlns="http://www.w3.org/2000/svg">
<path d="M36.5 63.875C40.0949 63.875 43.6547 63.1669 46.976 61.7912C50.2972 60.4155 53.315 58.3991 55.857 55.857C58.3991 53.315 60.4155 50.2972 61.7912 46.976C63.1669 43.6547 63.875 40.0949 63.875 36.5C63.875 32.9051 63.1669 29.3453 61.7912 26.024C60.4155 22.7028 58.3991 19.685 55.857 17.143C53.315 14.6009 50.2972 12.5845 46.976 11.2088C43.6547 9.83308 40.0949 9.125 36.5 9.125C29.2397 9.125 22.2768 12.0091 17.143 17.143C12.0091 22.2768 9.125 29.2397 9.125 36.5C9.125 43.7603 12.0091 50.7232 17.143 55.857C22.2768 60.9909 29.2397 63.875 36.5 63.875ZM36.5 68.4375C28.0296 68.4375 19.9062 65.0727 13.9168 59.0832C7.92733 53.0938 4.5625 44.9704 4.5625 36.5C4.5625 28.0296 7.92733 19.9062 13.9168 13.9168C19.9062 7.92733 28.0296 4.5625 36.5 4.5625C44.9704 4.5625 53.0938 7.92733 59.0832 13.9168C65.0727 19.9062 68.4375 28.0296 68.4375 36.5C68.4375 44.9704 65.0727 53.0938 59.0832 59.0832C53.0938 65.0727 44.9704 68.4375 36.5 68.4375Z" fill="#0FA05C"/>
<path d="M50.6065 25.7598C51.0349 25.3315 51.6158 25.0908 52.2216 25.0908C52.8274 25.0908 53.4084 25.3315 53.8368 25.7598C54.2651 26.1882 54.5058 26.7692 54.5058 27.375C54.5058 27.9807 54.2651 28.5617 53.8368 28.9901L33.3055 49.5213C33.0936 49.7338 32.8419 49.9023 32.5647 50.0173C32.2876 50.1323 31.9904 50.1915 31.6904 50.1915C31.3903 50.1915 31.0932 50.1323 30.8161 50.0173C30.5389 49.9023 30.2872 49.7338 30.0753 49.5213L18.669 38.1151C18.4569 37.903 18.2887 37.6512 18.1739 37.3741C18.0591 37.0969 18 36.7999 18 36.5C18 36.2 18.0591 35.903 18.1739 35.6259C18.2887 35.3487 18.4569 35.0969 18.669 34.8848C18.8811 34.6727 19.1329 34.5045 19.41 34.3897C19.6872 34.2749 19.9842 34.2158 20.2841 34.2158C20.5841 34.2158 20.8811 34.2749 21.1582 34.3897C21.4354 34.5045 21.6872 34.6727 21.8993 34.8848L31.6904 44.6805L50.6065 25.7598Z" fill="#0FA05C"/>
</svg>
